<mxfile host="app.diagrams.net" modified="2024-02-21T11:35:33.435Z" agent="Mozilla/5.0 (Windows NT 10.0; Win64; x64) AppleWebKit/537.36 (KHTML, like Gecko) Chrome/120.0.0.0 YaBrowser/24.1.0.0 Safari/537.36" etag="VxeWtuB2zY5uFDSJIg88" version="23.1.5" type="device">
  <diagram name="Страница — 1" id="xXVmxR8uxKlFaUdHyjgM">
    <mxGraphModel dx="2227" dy="1260" grid="0" gridSize="10" guides="1" tooltips="1" connect="1" arrows="1" fold="1" page="1" pageScale="1" pageWidth="1654" pageHeight="1169" math="0" shadow="0">
      <root>
        <mxCell id="0" />
        <mxCell id="1" parent="0" />
        <mxCell id="j_bU8EZD3RiMcGnf8XSQ-7" value="" style="group" vertex="1" connectable="0" parent="1">
          <mxGeometry x="384" y="340" width="90" height="190" as="geometry" />
        </mxCell>
        <mxCell id="j_bU8EZD3RiMcGnf8XSQ-1" value="" style="ellipse;whiteSpace=wrap;html=1;aspect=fixed;" vertex="1" parent="j_bU8EZD3RiMcGnf8XSQ-7">
          <mxGeometry x="18" width="48" height="48" as="geometry" />
        </mxCell>
        <mxCell id="j_bU8EZD3RiMcGnf8XSQ-3" value="" style="endArrow=none;html=1;rounded=0;entryX=0.5;entryY=1;entryDx=0;entryDy=0;" edge="1" parent="j_bU8EZD3RiMcGnf8XSQ-7" target="j_bU8EZD3RiMcGnf8XSQ-1">
          <mxGeometry width="50" height="50" relative="1" as="geometry">
            <mxPoint x="42" y="149.2857142857143" as="sourcePoint" />
            <mxPoint x="132" y="88.21428571428572" as="targetPoint" />
          </mxGeometry>
        </mxCell>
        <mxCell id="j_bU8EZD3RiMcGnf8XSQ-4" value="" style="endArrow=none;html=1;rounded=0;" edge="1" parent="j_bU8EZD3RiMcGnf8XSQ-7">
          <mxGeometry width="50" height="50" relative="1" as="geometry">
            <mxPoint x="18" y="190" as="sourcePoint" />
            <mxPoint x="42" y="149.2857142857143" as="targetPoint" />
          </mxGeometry>
        </mxCell>
        <mxCell id="j_bU8EZD3RiMcGnf8XSQ-5" value="" style="endArrow=none;html=1;rounded=0;" edge="1" parent="j_bU8EZD3RiMcGnf8XSQ-7">
          <mxGeometry width="50" height="50" relative="1" as="geometry">
            <mxPoint x="42" y="149.2857142857143" as="sourcePoint" />
            <mxPoint x="66" y="190" as="targetPoint" />
          </mxGeometry>
        </mxCell>
        <mxCell id="j_bU8EZD3RiMcGnf8XSQ-6" value="" style="endArrow=none;html=1;rounded=0;" edge="1" parent="j_bU8EZD3RiMcGnf8XSQ-7">
          <mxGeometry width="50" height="50" relative="1" as="geometry">
            <mxPoint y="81.42857142857143" as="sourcePoint" />
            <mxPoint x="90" y="81.42857142857143" as="targetPoint" />
          </mxGeometry>
        </mxCell>
        <mxCell id="j_bU8EZD3RiMcGnf8XSQ-20" value="" style="group" vertex="1" connectable="0" parent="1">
          <mxGeometry x="954" y="440" width="90" height="190" as="geometry" />
        </mxCell>
        <mxCell id="j_bU8EZD3RiMcGnf8XSQ-21" value="" style="ellipse;whiteSpace=wrap;html=1;aspect=fixed;" vertex="1" parent="j_bU8EZD3RiMcGnf8XSQ-20">
          <mxGeometry x="18" width="48" height="48" as="geometry" />
        </mxCell>
        <mxCell id="j_bU8EZD3RiMcGnf8XSQ-22" value="" style="endArrow=none;html=1;rounded=0;entryX=0.5;entryY=1;entryDx=0;entryDy=0;" edge="1" parent="j_bU8EZD3RiMcGnf8XSQ-20" target="j_bU8EZD3RiMcGnf8XSQ-21">
          <mxGeometry width="50" height="50" relative="1" as="geometry">
            <mxPoint x="42" y="149.2857142857143" as="sourcePoint" />
            <mxPoint x="132" y="88.21428571428572" as="targetPoint" />
          </mxGeometry>
        </mxCell>
        <mxCell id="j_bU8EZD3RiMcGnf8XSQ-23" value="" style="endArrow=none;html=1;rounded=0;" edge="1" parent="j_bU8EZD3RiMcGnf8XSQ-20">
          <mxGeometry width="50" height="50" relative="1" as="geometry">
            <mxPoint x="18" y="190" as="sourcePoint" />
            <mxPoint x="42" y="149.2857142857143" as="targetPoint" />
          </mxGeometry>
        </mxCell>
        <mxCell id="j_bU8EZD3RiMcGnf8XSQ-24" value="" style="endArrow=none;html=1;rounded=0;" edge="1" parent="j_bU8EZD3RiMcGnf8XSQ-20">
          <mxGeometry width="50" height="50" relative="1" as="geometry">
            <mxPoint x="42" y="149.2857142857143" as="sourcePoint" />
            <mxPoint x="66" y="190" as="targetPoint" />
          </mxGeometry>
        </mxCell>
        <mxCell id="j_bU8EZD3RiMcGnf8XSQ-25" value="" style="endArrow=none;html=1;rounded=0;" edge="1" parent="j_bU8EZD3RiMcGnf8XSQ-20">
          <mxGeometry width="50" height="50" relative="1" as="geometry">
            <mxPoint y="81.42857142857143" as="sourcePoint" />
            <mxPoint x="90" y="81.42857142857143" as="targetPoint" />
          </mxGeometry>
        </mxCell>
        <mxCell id="j_bU8EZD3RiMcGnf8XSQ-40" value="&lt;font style=&quot;font-size: 18px;&quot;&gt;Гость&lt;/font&gt;" style="text;html=1;align=center;verticalAlign=middle;resizable=0;points=[];autosize=1;strokeColor=none;fillColor=none;" vertex="1" parent="1">
          <mxGeometry x="394" y="530" width="70" height="40" as="geometry" />
        </mxCell>
        <mxCell id="j_bU8EZD3RiMcGnf8XSQ-42" value="" style="endArrow=classic;html=1;rounded=0;" edge="1" parent="1">
          <mxGeometry width="50" height="50" relative="1" as="geometry">
            <mxPoint x="404" y="340" as="sourcePoint" />
            <mxPoint x="334" y="300" as="targetPoint" />
          </mxGeometry>
        </mxCell>
        <mxCell id="j_bU8EZD3RiMcGnf8XSQ-43" value="" style="ellipse;whiteSpace=wrap;html=1;" vertex="1" parent="1">
          <mxGeometry x="234" y="210" width="120" height="80" as="geometry" />
        </mxCell>
        <mxCell id="j_bU8EZD3RiMcGnf8XSQ-44" value="Зарегистриваться" style="text;html=1;align=center;verticalAlign=middle;whiteSpace=wrap;rounded=0;" vertex="1" parent="1">
          <mxGeometry x="264" y="235" width="60" height="30" as="geometry" />
        </mxCell>
        <mxCell id="j_bU8EZD3RiMcGnf8XSQ-45" value="" style="ellipse;whiteSpace=wrap;html=1;" vertex="1" parent="1">
          <mxGeometry x="74" y="90" width="170" height="80" as="geometry" />
        </mxCell>
        <mxCell id="j_bU8EZD3RiMcGnf8XSQ-46" value="Выбрать тип аккаунта: Менеджер или пользователь" style="text;html=1;align=center;verticalAlign=middle;whiteSpace=wrap;rounded=0;" vertex="1" parent="1">
          <mxGeometry x="129" y="110" width="60" height="30" as="geometry" />
        </mxCell>
        <mxCell id="j_bU8EZD3RiMcGnf8XSQ-47" value="" style="endArrow=none;dashed=1;html=1;rounded=0;" edge="1" parent="1" source="j_bU8EZD3RiMcGnf8XSQ-43">
          <mxGeometry width="50" height="50" relative="1" as="geometry">
            <mxPoint x="150.00885936858822" y="190.08859368588173" as="sourcePoint" />
            <mxPoint x="204" y="180" as="targetPoint" />
          </mxGeometry>
        </mxCell>
        <mxCell id="j_bU8EZD3RiMcGnf8XSQ-48" value="" style="endArrow=classic;html=1;rounded=0;" edge="1" parent="1">
          <mxGeometry width="50" height="50" relative="1" as="geometry">
            <mxPoint x="204" y="180" as="sourcePoint" />
            <mxPoint x="194" y="170" as="targetPoint" />
          </mxGeometry>
        </mxCell>
        <mxCell id="j_bU8EZD3RiMcGnf8XSQ-49" value="&amp;lt;&amp;lt;include&amp;gt;&amp;gt;" style="text;html=1;align=center;verticalAlign=middle;whiteSpace=wrap;rounded=0;" vertex="1" parent="1">
          <mxGeometry x="189" y="180" width="60" height="30" as="geometry" />
        </mxCell>
        <mxCell id="j_bU8EZD3RiMcGnf8XSQ-50" value="" style="endArrow=classic;html=1;rounded=0;" edge="1" parent="1">
          <mxGeometry width="50" height="50" relative="1" as="geometry">
            <mxPoint x="394" y="370" as="sourcePoint" />
            <mxPoint x="314" y="380" as="targetPoint" />
          </mxGeometry>
        </mxCell>
        <mxCell id="j_bU8EZD3RiMcGnf8XSQ-51" value="" style="ellipse;whiteSpace=wrap;html=1;" vertex="1" parent="1">
          <mxGeometry x="174" y="350" width="120" height="80" as="geometry" />
        </mxCell>
        <mxCell id="j_bU8EZD3RiMcGnf8XSQ-52" value="Связь с менеджером" style="text;html=1;align=center;verticalAlign=middle;whiteSpace=wrap;rounded=0;" vertex="1" parent="1">
          <mxGeometry x="204" y="375" width="60" height="30" as="geometry" />
        </mxCell>
        <mxCell id="j_bU8EZD3RiMcGnf8XSQ-53" value="" style="endArrow=classic;html=1;rounded=0;" edge="1" parent="1">
          <mxGeometry width="50" height="50" relative="1" as="geometry">
            <mxPoint x="394" y="400" as="sourcePoint" />
            <mxPoint x="324" y="440" as="targetPoint" />
          </mxGeometry>
        </mxCell>
        <mxCell id="j_bU8EZD3RiMcGnf8XSQ-54" value="" style="ellipse;whiteSpace=wrap;html=1;" vertex="1" parent="1">
          <mxGeometry x="214" y="440" width="120" height="80" as="geometry" />
        </mxCell>
        <mxCell id="j_bU8EZD3RiMcGnf8XSQ-55" value="Забронировать тур" style="text;html=1;align=center;verticalAlign=middle;whiteSpace=wrap;rounded=0;" vertex="1" parent="1">
          <mxGeometry x="249" y="465" width="60" height="30" as="geometry" />
        </mxCell>
        <mxCell id="j_bU8EZD3RiMcGnf8XSQ-57" value="" style="endArrow=none;dashed=1;html=1;rounded=0;" edge="1" parent="1" source="j_bU8EZD3RiMcGnf8XSQ-56">
          <mxGeometry width="50" height="50" relative="1" as="geometry">
            <mxPoint x="189" y="530" as="sourcePoint" />
            <mxPoint x="144" y="550" as="targetPoint" />
          </mxGeometry>
        </mxCell>
        <mxCell id="j_bU8EZD3RiMcGnf8XSQ-59" value="" style="endArrow=classic;html=1;rounded=0;entryX=0.088;entryY=0.813;entryDx=0;entryDy=0;entryPerimeter=0;" edge="1" parent="1" target="j_bU8EZD3RiMcGnf8XSQ-54">
          <mxGeometry width="50" height="50" relative="1" as="geometry">
            <mxPoint x="214" y="510" as="sourcePoint" />
            <mxPoint x="218.54" y="495" as="targetPoint" />
          </mxGeometry>
        </mxCell>
        <mxCell id="j_bU8EZD3RiMcGnf8XSQ-60" value="" style="endArrow=none;dashed=1;html=1;rounded=0;" edge="1" parent="1" target="j_bU8EZD3RiMcGnf8XSQ-56">
          <mxGeometry width="50" height="50" relative="1" as="geometry">
            <mxPoint x="214" y="510" as="sourcePoint" />
            <mxPoint x="144" y="550" as="targetPoint" />
          </mxGeometry>
        </mxCell>
        <mxCell id="j_bU8EZD3RiMcGnf8XSQ-56" value="&amp;lt;&amp;lt;extend&amp;gt;&amp;gt;" style="text;html=1;align=center;verticalAlign=middle;whiteSpace=wrap;rounded=0;" vertex="1" parent="1">
          <mxGeometry x="154" y="520" width="50" height="20" as="geometry" />
        </mxCell>
        <mxCell id="j_bU8EZD3RiMcGnf8XSQ-61" value="" style="ellipse;whiteSpace=wrap;html=1;" vertex="1" parent="1">
          <mxGeometry x="54" y="550" width="120" height="80" as="geometry" />
        </mxCell>
        <mxCell id="j_bU8EZD3RiMcGnf8XSQ-62" value="Оставить отзыв" style="text;html=1;align=center;verticalAlign=middle;whiteSpace=wrap;rounded=0;" vertex="1" parent="1">
          <mxGeometry x="84" y="580" width="60" height="30" as="geometry" />
        </mxCell>
        <mxCell id="j_bU8EZD3RiMcGnf8XSQ-63" value="" style="group" vertex="1" connectable="0" parent="1">
          <mxGeometry x="394" y="610" width="210" height="255" as="geometry" />
        </mxCell>
        <mxCell id="j_bU8EZD3RiMcGnf8XSQ-32" value="" style="group" vertex="1" connectable="0" parent="j_bU8EZD3RiMcGnf8XSQ-63">
          <mxGeometry x="60" width="90" height="190" as="geometry" />
        </mxCell>
        <mxCell id="j_bU8EZD3RiMcGnf8XSQ-33" value="" style="ellipse;whiteSpace=wrap;html=1;aspect=fixed;" vertex="1" parent="j_bU8EZD3RiMcGnf8XSQ-32">
          <mxGeometry x="18" width="48" height="48" as="geometry" />
        </mxCell>
        <mxCell id="j_bU8EZD3RiMcGnf8XSQ-34" value="" style="endArrow=none;html=1;rounded=0;entryX=0.5;entryY=1;entryDx=0;entryDy=0;" edge="1" parent="j_bU8EZD3RiMcGnf8XSQ-32" target="j_bU8EZD3RiMcGnf8XSQ-33">
          <mxGeometry width="50" height="50" relative="1" as="geometry">
            <mxPoint x="42" y="149.2857142857143" as="sourcePoint" />
            <mxPoint x="132" y="88.21428571428572" as="targetPoint" />
          </mxGeometry>
        </mxCell>
        <mxCell id="j_bU8EZD3RiMcGnf8XSQ-35" value="" style="endArrow=none;html=1;rounded=0;" edge="1" parent="j_bU8EZD3RiMcGnf8XSQ-32">
          <mxGeometry width="50" height="50" relative="1" as="geometry">
            <mxPoint x="18" y="190" as="sourcePoint" />
            <mxPoint x="42" y="149.2857142857143" as="targetPoint" />
          </mxGeometry>
        </mxCell>
        <mxCell id="j_bU8EZD3RiMcGnf8XSQ-36" value="" style="endArrow=none;html=1;rounded=0;" edge="1" parent="j_bU8EZD3RiMcGnf8XSQ-32">
          <mxGeometry width="50" height="50" relative="1" as="geometry">
            <mxPoint x="42" y="149.2857142857143" as="sourcePoint" />
            <mxPoint x="66" y="190" as="targetPoint" />
          </mxGeometry>
        </mxCell>
        <mxCell id="j_bU8EZD3RiMcGnf8XSQ-37" value="" style="endArrow=none;html=1;rounded=0;" edge="1" parent="j_bU8EZD3RiMcGnf8XSQ-32">
          <mxGeometry width="50" height="50" relative="1" as="geometry">
            <mxPoint y="81.42857142857143" as="sourcePoint" />
            <mxPoint x="90" y="81.42857142857143" as="targetPoint" />
          </mxGeometry>
        </mxCell>
        <mxCell id="j_bU8EZD3RiMcGnf8XSQ-41" value="&lt;font style=&quot;font-size: 18px;&quot;&gt;Зарегистрированный&amp;nbsp;&lt;br&gt;пользователь&lt;br&gt;&lt;/font&gt;" style="text;html=1;align=center;verticalAlign=middle;resizable=0;points=[];autosize=1;strokeColor=none;fillColor=none;" vertex="1" parent="j_bU8EZD3RiMcGnf8XSQ-63">
          <mxGeometry y="195" width="210" height="60" as="geometry" />
        </mxCell>
        <mxCell id="j_bU8EZD3RiMcGnf8XSQ-64" value="" style="endArrow=classic;html=1;rounded=0;" edge="1" parent="1">
          <mxGeometry width="50" height="50" relative="1" as="geometry">
            <mxPoint x="434" y="630" as="sourcePoint" />
            <mxPoint x="324" y="540" as="targetPoint" />
          </mxGeometry>
        </mxCell>
        <mxCell id="j_bU8EZD3RiMcGnf8XSQ-65" value="" style="endArrow=classic;html=1;rounded=0;" edge="1" parent="1">
          <mxGeometry width="50" height="50" relative="1" as="geometry">
            <mxPoint x="534" y="610" as="sourcePoint" />
            <mxPoint x="624" y="470" as="targetPoint" />
          </mxGeometry>
        </mxCell>
        <mxCell id="j_bU8EZD3RiMcGnf8XSQ-66" value="" style="ellipse;whiteSpace=wrap;html=1;" vertex="1" parent="1">
          <mxGeometry x="624" y="375" width="120" height="80" as="geometry" />
        </mxCell>
        <mxCell id="j_bU8EZD3RiMcGnf8XSQ-67" value="Просмотр туров" style="text;html=1;align=center;verticalAlign=middle;whiteSpace=wrap;rounded=0;" vertex="1" parent="1">
          <mxGeometry x="654" y="400" width="60" height="30" as="geometry" />
        </mxCell>
        <mxCell id="j_bU8EZD3RiMcGnf8XSQ-68" value="" style="ellipse;whiteSpace=wrap;html=1;" vertex="1" parent="1">
          <mxGeometry x="294" y="90" width="120" height="80" as="geometry" />
        </mxCell>
        <mxCell id="j_bU8EZD3RiMcGnf8XSQ-69" value="" style="ellipse;whiteSpace=wrap;html=1;" vertex="1" parent="1">
          <mxGeometry x="264" y="960" width="120" height="80" as="geometry" />
        </mxCell>
        <mxCell id="j_bU8EZD3RiMcGnf8XSQ-70" value="" style="endArrow=classic;html=1;rounded=0;" edge="1" parent="1">
          <mxGeometry width="50" height="50" relative="1" as="geometry">
            <mxPoint x="414" y="330" as="sourcePoint" />
            <mxPoint x="364" y="190" as="targetPoint" />
          </mxGeometry>
        </mxCell>
        <mxCell id="j_bU8EZD3RiMcGnf8XSQ-71" value="Выбор оплаты" style="text;html=1;align=center;verticalAlign=middle;whiteSpace=wrap;rounded=0;" vertex="1" parent="1">
          <mxGeometry x="324" y="115" width="60" height="30" as="geometry" />
        </mxCell>
        <mxCell id="j_bU8EZD3RiMcGnf8XSQ-72" value="" style="ellipse;whiteSpace=wrap;html=1;" vertex="1" parent="1">
          <mxGeometry x="524" y="960" width="120" height="80" as="geometry" />
        </mxCell>
        <mxCell id="j_bU8EZD3RiMcGnf8XSQ-73" value="" style="endArrow=classic;html=1;rounded=0;" edge="1" parent="1">
          <mxGeometry width="50" height="50" relative="1" as="geometry">
            <mxPoint x="434" y="880" as="sourcePoint" />
            <mxPoint x="364" y="950" as="targetPoint" />
          </mxGeometry>
        </mxCell>
        <mxCell id="j_bU8EZD3RiMcGnf8XSQ-74" value="" style="endArrow=classic;html=1;rounded=0;" edge="1" parent="1">
          <mxGeometry width="50" height="50" relative="1" as="geometry">
            <mxPoint x="534" y="880" as="sourcePoint" />
            <mxPoint x="574" y="950" as="targetPoint" />
          </mxGeometry>
        </mxCell>
        <mxCell id="j_bU8EZD3RiMcGnf8XSQ-75" value="Просмотр&lt;br&gt;цены&lt;br&gt;тура" style="text;html=1;align=center;verticalAlign=middle;whiteSpace=wrap;rounded=0;" vertex="1" parent="1">
          <mxGeometry x="294" y="985" width="60" height="30" as="geometry" />
        </mxCell>
        <mxCell id="j_bU8EZD3RiMcGnf8XSQ-76" value="Добавление&lt;br&gt;в избранное" style="text;html=1;align=center;verticalAlign=middle;whiteSpace=wrap;rounded=0;" vertex="1" parent="1">
          <mxGeometry x="554" y="985" width="60" height="30" as="geometry" />
        </mxCell>
        <mxCell id="j_bU8EZD3RiMcGnf8XSQ-77" value="" style="endArrow=classic;html=1;rounded=0;" edge="1" parent="1">
          <mxGeometry width="50" height="50" relative="1" as="geometry">
            <mxPoint x="464" y="370" as="sourcePoint" />
            <mxPoint x="594" y="400" as="targetPoint" />
          </mxGeometry>
        </mxCell>
        <mxCell id="j_bU8EZD3RiMcGnf8XSQ-84" value="" style="group" vertex="1" connectable="0" parent="1">
          <mxGeometry x="604" y="290" width="60" height="80" as="geometry" />
        </mxCell>
        <mxCell id="j_bU8EZD3RiMcGnf8XSQ-79" value="" style="endArrow=none;dashed=1;html=1;dashPattern=1 3;strokeWidth=2;rounded=0;" edge="1" parent="j_bU8EZD3RiMcGnf8XSQ-84" source="j_bU8EZD3RiMcGnf8XSQ-82">
          <mxGeometry width="50" height="50" relative="1" as="geometry">
            <mxPoint x="50" y="70" as="sourcePoint" />
            <mxPoint as="targetPoint" />
          </mxGeometry>
        </mxCell>
        <mxCell id="j_bU8EZD3RiMcGnf8XSQ-80" value="" style="endArrow=classic;html=1;rounded=0;" edge="1" parent="j_bU8EZD3RiMcGnf8XSQ-84">
          <mxGeometry width="50" height="50" relative="1" as="geometry">
            <mxPoint x="50" y="70" as="sourcePoint" />
            <mxPoint x="60" y="80" as="targetPoint" />
          </mxGeometry>
        </mxCell>
        <mxCell id="j_bU8EZD3RiMcGnf8XSQ-83" value="" style="endArrow=none;dashed=1;html=1;dashPattern=1 3;strokeWidth=2;rounded=0;" edge="1" parent="j_bU8EZD3RiMcGnf8XSQ-84" target="j_bU8EZD3RiMcGnf8XSQ-82">
          <mxGeometry width="50" height="50" relative="1" as="geometry">
            <mxPoint x="50" y="70" as="sourcePoint" />
            <mxPoint as="targetPoint" />
          </mxGeometry>
        </mxCell>
        <mxCell id="j_bU8EZD3RiMcGnf8XSQ-82" value="&amp;lt;&amp;lt;extend&amp;gt;&amp;gt;" style="text;html=1;align=center;verticalAlign=middle;whiteSpace=wrap;rounded=0;" vertex="1" parent="j_bU8EZD3RiMcGnf8XSQ-84">
          <mxGeometry y="30" width="50" height="20" as="geometry" />
        </mxCell>
        <mxCell id="j_bU8EZD3RiMcGnf8XSQ-89" value="" style="endArrow=none;dashed=1;html=1;dashPattern=1 3;strokeWidth=2;rounded=0;" edge="1" parent="1" source="j_bU8EZD3RiMcGnf8XSQ-95">
          <mxGeometry width="50" height="50" relative="1" as="geometry">
            <mxPoint x="714" y="360" as="sourcePoint" />
            <mxPoint x="734" y="280" as="targetPoint" />
          </mxGeometry>
        </mxCell>
        <mxCell id="j_bU8EZD3RiMcGnf8XSQ-90" value="" style="endArrow=none;dashed=1;html=1;dashPattern=1 3;strokeWidth=2;rounded=0;" edge="1" parent="1" source="j_bU8EZD3RiMcGnf8XSQ-94">
          <mxGeometry width="50" height="50" relative="1" as="geometry">
            <mxPoint x="764" y="380" as="sourcePoint" />
            <mxPoint x="814" y="310" as="targetPoint" />
          </mxGeometry>
        </mxCell>
        <mxCell id="j_bU8EZD3RiMcGnf8XSQ-92" value="" style="endArrow=classic;html=1;rounded=0;" edge="1" parent="1">
          <mxGeometry width="50" height="50" relative="1" as="geometry">
            <mxPoint x="714" y="360" as="sourcePoint" />
            <mxPoint x="704" y="370" as="targetPoint" />
          </mxGeometry>
        </mxCell>
        <mxCell id="j_bU8EZD3RiMcGnf8XSQ-93" value="" style="endArrow=classic;html=1;rounded=0;" edge="1" parent="1">
          <mxGeometry width="50" height="50" relative="1" as="geometry">
            <mxPoint x="764" y="380" as="sourcePoint" />
            <mxPoint x="754" y="390" as="targetPoint" />
          </mxGeometry>
        </mxCell>
        <mxCell id="j_bU8EZD3RiMcGnf8XSQ-96" value="" style="endArrow=none;dashed=1;html=1;dashPattern=1 3;strokeWidth=2;rounded=0;" edge="1" parent="1" target="j_bU8EZD3RiMcGnf8XSQ-95">
          <mxGeometry width="50" height="50" relative="1" as="geometry">
            <mxPoint x="714" y="360" as="sourcePoint" />
            <mxPoint x="734" y="280" as="targetPoint" />
          </mxGeometry>
        </mxCell>
        <mxCell id="j_bU8EZD3RiMcGnf8XSQ-95" value="&amp;lt;&amp;lt;extend&amp;gt;&amp;gt;" style="text;html=1;align=center;verticalAlign=middle;whiteSpace=wrap;rounded=0;" vertex="1" parent="1">
          <mxGeometry x="694" y="320" width="50" height="20" as="geometry" />
        </mxCell>
        <mxCell id="j_bU8EZD3RiMcGnf8XSQ-98" value="" style="endArrow=none;dashed=1;html=1;dashPattern=1 3;strokeWidth=2;rounded=0;" edge="1" parent="1" target="j_bU8EZD3RiMcGnf8XSQ-94">
          <mxGeometry width="50" height="50" relative="1" as="geometry">
            <mxPoint x="764" y="380" as="sourcePoint" />
            <mxPoint x="814" y="310" as="targetPoint" />
          </mxGeometry>
        </mxCell>
        <mxCell id="j_bU8EZD3RiMcGnf8XSQ-94" value="&amp;lt;&amp;lt;extend&amp;gt;&amp;gt;" style="text;html=1;align=center;verticalAlign=middle;whiteSpace=wrap;rounded=0;" vertex="1" parent="1">
          <mxGeometry x="754" y="340" width="50" height="20" as="geometry" />
        </mxCell>
        <mxCell id="j_bU8EZD3RiMcGnf8XSQ-99" value="Просмотр&lt;br&gt;каталогов" style="ellipse;whiteSpace=wrap;html=1;" vertex="1" parent="1">
          <mxGeometry x="522" y="205" width="120" height="80" as="geometry" />
        </mxCell>
        <mxCell id="j_bU8EZD3RiMcGnf8XSQ-100" value="Поиск туров" style="ellipse;whiteSpace=wrap;html=1;" vertex="1" parent="1">
          <mxGeometry x="676" y="192" width="120" height="80" as="geometry" />
        </mxCell>
        <mxCell id="j_bU8EZD3RiMcGnf8XSQ-101" value="Связь с менеджером" style="ellipse;whiteSpace=wrap;html=1;" vertex="1" parent="1">
          <mxGeometry x="790" y="235" width="120" height="80" as="geometry" />
        </mxCell>
        <mxCell id="j_bU8EZD3RiMcGnf8XSQ-102" value="" style="endArrow=classic;html=1;rounded=0;" edge="1" parent="1">
          <mxGeometry width="50" height="50" relative="1" as="geometry">
            <mxPoint x="854" y="540" as="sourcePoint" />
            <mxPoint x="754" y="440" as="targetPoint" />
            <Array as="points">
              <mxPoint x="954" y="470" />
            </Array>
          </mxGeometry>
        </mxCell>
        <mxCell id="j_bU8EZD3RiMcGnf8XSQ-103" value="" style="endArrow=classic;html=1;rounded=0;" edge="1" parent="1">
          <mxGeometry width="50" height="50" relative="1" as="geometry">
            <mxPoint x="854" y="540" as="sourcePoint" />
            <mxPoint x="812" y="570" as="targetPoint" />
          </mxGeometry>
        </mxCell>
        <mxCell id="j_bU8EZD3RiMcGnf8XSQ-104" value="Отправка на обработку данных" style="ellipse;whiteSpace=wrap;html=1;" vertex="1" parent="1">
          <mxGeometry x="684" y="560" width="120" height="80" as="geometry" />
        </mxCell>
        <mxCell id="j_bU8EZD3RiMcGnf8XSQ-105" value="&lt;font style=&quot;font-size: 18px;&quot;&gt;Менеджер&lt;/font&gt;" style="text;html=1;align=center;verticalAlign=middle;resizable=0;points=[];autosize=1;strokeColor=none;fillColor=none;" vertex="1" parent="1">
          <mxGeometry x="944" y="630" width="110" height="40" as="geometry" />
        </mxCell>
        <mxCell id="j_bU8EZD3RiMcGnf8XSQ-106" value="" style="endArrow=classic;html=1;rounded=0;" edge="1" parent="1">
          <mxGeometry width="50" height="50" relative="1" as="geometry">
            <mxPoint x="1044" y="430" as="sourcePoint" />
            <mxPoint x="1134" y="350" as="targetPoint" />
          </mxGeometry>
        </mxCell>
        <mxCell id="j_bU8EZD3RiMcGnf8XSQ-107" value="" style="endArrow=classic;html=1;rounded=0;" edge="1" parent="1">
          <mxGeometry width="50" height="50" relative="1" as="geometry">
            <mxPoint x="1054" y="470" as="sourcePoint" />
            <mxPoint x="1194" y="450" as="targetPoint" />
          </mxGeometry>
        </mxCell>
        <mxCell id="j_bU8EZD3RiMcGnf8XSQ-108" value="" style="endArrow=classic;html=1;rounded=0;" edge="1" parent="1">
          <mxGeometry width="50" height="50" relative="1" as="geometry">
            <mxPoint x="1074" y="530" as="sourcePoint" />
            <mxPoint x="1244" y="610" as="targetPoint" />
          </mxGeometry>
        </mxCell>
        <mxCell id="j_bU8EZD3RiMcGnf8XSQ-109" value="Ответить пользователям" style="ellipse;whiteSpace=wrap;html=1;" vertex="1" parent="1">
          <mxGeometry x="1134" y="285" width="120" height="80" as="geometry" />
        </mxCell>
        <mxCell id="j_bU8EZD3RiMcGnf8XSQ-110" value="Блокировка пользователя" style="ellipse;whiteSpace=wrap;html=1;" vertex="1" parent="1">
          <mxGeometry x="1213" y="402" width="120" height="80" as="geometry" />
        </mxCell>
        <mxCell id="j_bU8EZD3RiMcGnf8XSQ-111" value="" style="ellipse;whiteSpace=wrap;html=1;" vertex="1" parent="1">
          <mxGeometry x="1264" y="590" width="120" height="80" as="geometry" />
        </mxCell>
        <mxCell id="j_bU8EZD3RiMcGnf8XSQ-112" value="Добавление тура" style="text;html=1;align=center;verticalAlign=middle;whiteSpace=wrap;rounded=0;" vertex="1" parent="1">
          <mxGeometry x="1294" y="619" width="60" height="30" as="geometry" />
        </mxCell>
        <mxCell id="j_bU8EZD3RiMcGnf8XSQ-113" value="" style="endArrow=none;dashed=1;html=1;dashPattern=1 3;strokeWidth=2;rounded=0;" edge="1" parent="1" source="j_bU8EZD3RiMcGnf8XSQ-119">
          <mxGeometry width="50" height="50" relative="1" as="geometry">
            <mxPoint x="1378" y="597" as="sourcePoint" />
            <mxPoint x="1454" y="530" as="targetPoint" />
          </mxGeometry>
        </mxCell>
        <mxCell id="j_bU8EZD3RiMcGnf8XSQ-114" value="" style="endArrow=none;dashed=1;html=1;dashPattern=1 3;strokeWidth=2;rounded=0;" edge="1" parent="1" source="j_bU8EZD3RiMcGnf8XSQ-121">
          <mxGeometry width="50" height="50" relative="1" as="geometry">
            <mxPoint x="1396" y="620" as="sourcePoint" />
            <mxPoint x="1495" y="626" as="targetPoint" />
          </mxGeometry>
        </mxCell>
        <mxCell id="j_bU8EZD3RiMcGnf8XSQ-115" value="" style="endArrow=none;dashed=1;html=1;dashPattern=1 3;strokeWidth=2;rounded=0;" edge="1" parent="1" source="j_bU8EZD3RiMcGnf8XSQ-123">
          <mxGeometry width="50" height="50" relative="1" as="geometry">
            <mxPoint x="1382" y="665" as="sourcePoint" />
            <mxPoint x="1489" y="697" as="targetPoint" />
          </mxGeometry>
        </mxCell>
        <mxCell id="j_bU8EZD3RiMcGnf8XSQ-116" value="" style="endArrow=classic;html=1;rounded=0;" edge="1" parent="1">
          <mxGeometry width="50" height="50" relative="1" as="geometry">
            <mxPoint x="1485" y="697" as="sourcePoint" />
            <mxPoint x="1494" y="700" as="targetPoint" />
          </mxGeometry>
        </mxCell>
        <mxCell id="j_bU8EZD3RiMcGnf8XSQ-117" value="" style="endArrow=classic;html=1;rounded=0;" edge="1" parent="1">
          <mxGeometry width="50" height="50" relative="1" as="geometry">
            <mxPoint x="1495" y="627" as="sourcePoint" />
            <mxPoint x="1504" y="630" as="targetPoint" />
          </mxGeometry>
        </mxCell>
        <mxCell id="j_bU8EZD3RiMcGnf8XSQ-118" value="" style="endArrow=classic;html=1;rounded=0;" edge="1" parent="1">
          <mxGeometry width="50" height="50" relative="1" as="geometry">
            <mxPoint x="1454" y="531" as="sourcePoint" />
            <mxPoint x="1461" y="527" as="targetPoint" />
          </mxGeometry>
        </mxCell>
        <mxCell id="j_bU8EZD3RiMcGnf8XSQ-120" value="" style="endArrow=none;dashed=1;html=1;dashPattern=1 3;strokeWidth=2;rounded=0;" edge="1" parent="1" target="j_bU8EZD3RiMcGnf8XSQ-119">
          <mxGeometry width="50" height="50" relative="1" as="geometry">
            <mxPoint x="1378" y="597" as="sourcePoint" />
            <mxPoint x="1454" y="530" as="targetPoint" />
          </mxGeometry>
        </mxCell>
        <mxCell id="j_bU8EZD3RiMcGnf8XSQ-119" value="&amp;lt;&amp;lt;include&amp;gt;&amp;gt;" style="text;html=1;align=center;verticalAlign=middle;whiteSpace=wrap;rounded=0;" vertex="1" parent="1">
          <mxGeometry x="1384" y="540" width="60" height="30" as="geometry" />
        </mxCell>
        <mxCell id="j_bU8EZD3RiMcGnf8XSQ-122" value="" style="endArrow=none;dashed=1;html=1;dashPattern=1 3;strokeWidth=2;rounded=0;" edge="1" parent="1" target="j_bU8EZD3RiMcGnf8XSQ-121">
          <mxGeometry width="50" height="50" relative="1" as="geometry">
            <mxPoint x="1396" y="620" as="sourcePoint" />
            <mxPoint x="1495" y="626" as="targetPoint" />
          </mxGeometry>
        </mxCell>
        <mxCell id="j_bU8EZD3RiMcGnf8XSQ-121" value="&amp;lt;&amp;lt;include&amp;gt;&amp;gt;" style="text;html=1;align=center;verticalAlign=middle;whiteSpace=wrap;rounded=0;" vertex="1" parent="1">
          <mxGeometry x="1414" y="610" width="60" height="30" as="geometry" />
        </mxCell>
        <mxCell id="j_bU8EZD3RiMcGnf8XSQ-124" value="" style="endArrow=none;dashed=1;html=1;dashPattern=1 3;strokeWidth=2;rounded=0;" edge="1" parent="1" target="j_bU8EZD3RiMcGnf8XSQ-123">
          <mxGeometry width="50" height="50" relative="1" as="geometry">
            <mxPoint x="1382" y="665" as="sourcePoint" />
            <mxPoint x="1489" y="697" as="targetPoint" />
          </mxGeometry>
        </mxCell>
        <mxCell id="j_bU8EZD3RiMcGnf8XSQ-123" value="&amp;lt;&amp;lt;include&amp;gt;&amp;gt;" style="text;html=1;align=center;verticalAlign=middle;whiteSpace=wrap;rounded=0;" vertex="1" parent="1">
          <mxGeometry x="1394" y="658" width="60" height="30" as="geometry" />
        </mxCell>
        <mxCell id="j_bU8EZD3RiMcGnf8XSQ-125" value="Добавление фотографий тура" style="ellipse;whiteSpace=wrap;html=1;" vertex="1" parent="1">
          <mxGeometry x="1464" y="477" width="120" height="80" as="geometry" />
        </mxCell>
        <mxCell id="j_bU8EZD3RiMcGnf8XSQ-126" value="Указать описание тура" style="ellipse;whiteSpace=wrap;html=1;" vertex="1" parent="1">
          <mxGeometry x="1512" y="600" width="120" height="80" as="geometry" />
        </mxCell>
        <mxCell id="j_bU8EZD3RiMcGnf8XSQ-129" value="Указать цену" style="ellipse;whiteSpace=wrap;html=1;" vertex="1" parent="1">
          <mxGeometry x="1524" y="698" width="120" height="80" as="geometry" />
        </mxCell>
        <mxCell id="j_bU8EZD3RiMcGnf8XSQ-130" value="" style="endArrow=classic;html=1;rounded=0;" edge="1" parent="1">
          <mxGeometry width="50" height="50" relative="1" as="geometry">
            <mxPoint x="1064" y="580" as="sourcePoint" />
            <mxPoint x="1104" y="710" as="targetPoint" />
          </mxGeometry>
        </mxCell>
        <mxCell id="j_bU8EZD3RiMcGnf8XSQ-131" value="Убрать тур" style="ellipse;whiteSpace=wrap;html=1;" vertex="1" parent="1">
          <mxGeometry x="1058" y="722" width="120" height="80" as="geometry" />
        </mxCell>
      </root>
    </mxGraphModel>
  </diagram>
</mxfile>
